<svg xmlns="http://www.w3.org/2000/svg" xmlns:xlink="http://www.w3.org/1999/xlink" zoomAndPan="magnify" preserveAspectRatio="xMidYMid meet" version="1.0" viewBox="81.18 117.43 204.32 140.14"><defs><g/><clipPath id="45611366d0"><path d="M 88 197 L 142 197 L 142 252 L 88 252 Z M 88 197 " clip-rule="nonzero"/></clipPath><clipPath id="e29a63e977"><path d="M 82.113281 236.128906 L 126.628906 191.617188 L 148.066406 213.050781 L 103.550781 257.566406 Z M 82.113281 236.128906 " clip-rule="nonzero"/></clipPath><clipPath id="ddfd8b6d55"><path d="M 92.832031 225.414062 L 115.910156 202.332031 C 118.753906 199.492188 122.609375 197.894531 126.628906 197.894531 C 130.648438 197.894531 134.503906 199.492188 137.347656 202.332031 C 140.191406 205.175781 141.785156 209.03125 141.785156 213.050781 C 141.785156 217.070312 140.191406 220.925781 137.347656 223.769531 L 114.269531 246.847656 C 111.425781 249.691406 107.570312 251.289062 103.550781 251.289062 C 99.53125 251.289062 95.675781 249.691406 92.832031 246.847656 C 89.988281 244.007812 88.394531 240.152344 88.394531 236.128906 C 88.394531 232.109375 89.988281 228.253906 92.832031 225.414062 Z M 92.832031 225.414062 " clip-rule="nonzero"/></clipPath><clipPath id="28c00a2a2d"><path d="M 87 123 L 142 123 L 142 177 L 87 177 Z M 87 123 " clip-rule="nonzero"/></clipPath><clipPath id="522008525c"><path d="M 101.6875 117.429688 L 148.058594 160.007812 L 127.554688 182.335938 L 81.183594 139.761719 Z M 101.6875 117.429688 " clip-rule="nonzero"/></clipPath><clipPath id="d654832b5e"><path d="M 112.851562 127.683594 L 136.894531 149.757812 C 139.855469 152.476562 141.613281 156.257812 141.785156 160.277344 C 141.957031 164.292969 140.527344 168.210938 137.808594 171.171875 C 135.089844 174.132812 131.304688 175.894531 127.289062 176.066406 C 123.273438 176.234375 119.351562 174.804688 116.390625 172.085938 L 92.347656 150.011719 C 89.386719 147.292969 87.628906 143.507812 87.457031 139.492188 C 87.285156 135.476562 88.714844 131.558594 91.433594 128.597656 C 94.152344 125.636719 97.9375 123.875 101.953125 123.703125 C 105.96875 123.53125 109.890625 124.964844 112.851562 127.683594 Z M 112.851562 127.683594 " clip-rule="nonzero"/></clipPath><clipPath id="3f56fabc6a"><path d="M 88 146 L 142 146 L 142 200 L 88 200 Z M 88 146 " clip-rule="nonzero"/></clipPath><clipPath id="cd8a2e5b31"><path d="M 82.113281 184.320312 L 126.628906 139.804688 L 148.066406 161.242188 L 103.550781 205.753906 Z M 82.113281 184.320312 " clip-rule="nonzero"/></clipPath><clipPath id="7b7a667372"><path d="M 92.832031 173.601562 L 115.910156 150.523438 C 118.753906 147.679688 122.609375 146.082031 126.628906 146.082031 C 130.648438 146.082031 134.503906 147.679688 137.347656 150.523438 C 140.191406 153.367188 141.785156 157.222656 141.785156 161.242188 C 141.785156 165.261719 140.191406 169.117188 137.347656 171.957031 L 114.269531 195.039062 C 111.425781 197.878906 107.570312 199.476562 103.550781 199.476562 C 99.53125 199.476562 95.675781 197.878906 92.832031 195.039062 C 89.988281 192.195312 88.394531 188.339844 88.394531 184.320312 C 88.394531 180.300781 89.988281 176.445312 92.832031 173.601562 Z M 92.832031 173.601562 " clip-rule="nonzero"/></clipPath><clipPath id="f1674ac2f1"><path d="M 135.378906 173.53125 L 162.242188 173.53125 L 162.242188 200.398438 L 135.378906 200.398438 Z M 135.378906 173.53125 " clip-rule="nonzero"/></clipPath><clipPath id="b400d3605b"><path d="M 148.8125 173.53125 C 141.394531 173.53125 135.378906 179.546875 135.378906 186.964844 C 135.378906 194.382812 141.394531 200.398438 148.8125 200.398438 C 156.230469 200.398438 162.242188 194.382812 162.242188 186.964844 C 162.242188 179.546875 156.230469 173.53125 148.8125 173.53125 Z M 148.8125 173.53125 " clip-rule="nonzero"/></clipPath></defs><g clip-path="url(#45611366d0)"><g clip-path="url(#e29a63e977)"><g clip-path="url(#ddfd8b6d55)"><path fill="#901dff" d="M 82.113281 236.128906 L 126.628906 191.617188 L 148.066406 213.050781 L 103.550781 257.566406 Z M 82.113281 236.128906 " fill-opacity="1" fill-rule="nonzero"/></g></g></g><g clip-path="url(#28c00a2a2d)"><g clip-path="url(#522008525c)"><g clip-path="url(#d654832b5e)"><path fill="#5f00cd" d="M 101.6875 117.429688 L 148.058594 160.007812 L 127.554688 182.335938 L 81.183594 139.761719 Z M 101.6875 117.429688 " fill-opacity="1" fill-rule="nonzero"/></g></g></g><g clip-path="url(#3f56fabc6a)"><g clip-path="url(#cd8a2e5b31)"><g clip-path="url(#7b7a667372)"><path fill="#901dff" d="M 82.113281 184.320312 L 126.628906 139.804688 L 148.066406 161.242188 L 103.550781 205.753906 Z M 82.113281 184.320312 " fill-opacity="1" fill-rule="nonzero"/></g></g></g><g clip-path="url(#f1674ac2f1)"><g clip-path="url(#b400d3605b)"><path fill="#5f00cd" d="M 135.378906 173.53125 L 162.242188 173.53125 L 162.242188 200.398438 L 135.378906 200.398438 Z M 135.378906 173.53125 " fill-opacity="1" fill-rule="nonzero"/></g></g><g fill="#000000" fill-opacity="1"><g transform="translate(169.8458, 180.438661)"><g><path d="M 29.359375 -24.046875 L 29.359375 0 L 23.5 0 L 23.5 -14.421875 L 18.125 0 L 13.390625 0 L 7.984375 -14.453125 L 7.984375 0 L 2.125 0 L 2.125 -24.046875 L 9.046875 -24.046875 L 15.796875 -7.390625 L 22.46875 -24.046875 Z M 29.359375 -24.046875 "/></g></g></g><g fill="#000000" fill-opacity="1"><g transform="translate(201.27443, 180.438661)"><g><path d="M 0.953125 -9.59375 C 0.953125 -11.550781 1.320312 -13.269531 2.0625 -14.75 C 2.8125 -16.238281 3.820312 -17.382812 5.09375 -18.1875 C 6.375 -18.988281 7.804688 -19.390625 9.390625 -19.390625 C 10.734375 -19.390625 11.910156 -19.113281 12.921875 -18.5625 C 13.941406 -18.007812 14.726562 -17.289062 15.28125 -16.40625 L 15.28125 -19.109375 L 21.125 -19.109375 L 21.125 0 L 15.28125 0 L 15.28125 -2.703125 C 14.707031 -1.816406 13.910156 -1.097656 12.890625 -0.546875 C 11.878906 0.00390625 10.695312 0.28125 9.34375 0.28125 C 7.789062 0.28125 6.375 -0.125 5.09375 -0.9375 C 3.820312 -1.75 2.8125 -2.898438 2.0625 -4.390625 C 1.320312 -5.890625 0.953125 -7.625 0.953125 -9.59375 Z M 15.28125 -9.5625 C 15.28125 -11.019531 14.875 -12.171875 14.0625 -13.015625 C 13.25 -13.859375 12.257812 -14.28125 11.09375 -14.28125 C 9.925781 -14.28125 8.9375 -13.863281 8.125 -13.03125 C 7.320312 -12.195312 6.921875 -11.050781 6.921875 -9.59375 C 6.921875 -8.125 7.320312 -6.960938 8.125 -6.109375 C 8.9375 -5.253906 9.925781 -4.828125 11.09375 -4.828125 C 12.257812 -4.828125 13.25 -5.25 14.0625 -6.09375 C 14.875 -6.9375 15.28125 -8.09375 15.28125 -9.5625 Z M 15.28125 -9.5625 "/></g></g></g><g fill="#000000" fill-opacity="1"><g transform="translate(224.520668, 180.438661)"><g><path d="M 7.984375 -15.921875 C 8.660156 -16.972656 9.515625 -17.800781 10.546875 -18.40625 C 11.578125 -19.007812 12.71875 -19.3125 13.96875 -19.3125 L 13.96875 -13.125 L 12.359375 -13.125 C 10.898438 -13.125 9.804688 -12.804688 9.078125 -12.171875 C 8.347656 -11.546875 7.984375 -10.445312 7.984375 -8.875 L 7.984375 0 L 2.125 0 L 2.125 -19.109375 L 7.984375 -19.109375 Z M 7.984375 -15.921875 "/></g></g></g><g fill="#000000" fill-opacity="1"><g transform="translate(239.173676, 180.438661)"><g><path d="M 10.828125 0.28125 C 8.953125 0.28125 7.265625 -0.117188 5.765625 -0.921875 C 4.273438 -1.722656 3.097656 -2.863281 2.234375 -4.34375 C 1.378906 -5.832031 0.953125 -7.570312 0.953125 -9.5625 C 0.953125 -11.519531 1.382812 -13.242188 2.25 -14.734375 C 3.125 -16.234375 4.3125 -17.382812 5.8125 -18.1875 C 7.320312 -18.988281 9.015625 -19.390625 10.890625 -19.390625 C 12.765625 -19.390625 14.453125 -18.988281 15.953125 -18.1875 C 17.460938 -17.382812 18.648438 -16.234375 19.515625 -14.734375 C 20.390625 -13.242188 20.828125 -11.519531 20.828125 -9.5625 C 20.828125 -7.59375 20.382812 -5.859375 19.5 -4.359375 C 18.625 -2.867188 17.425781 -1.722656 15.90625 -0.921875 C 14.382812 -0.117188 12.691406 0.28125 10.828125 0.28125 Z M 10.828125 -4.796875 C 11.941406 -4.796875 12.890625 -5.207031 13.671875 -6.03125 C 14.460938 -6.851562 14.859375 -8.03125 14.859375 -9.5625 C 14.859375 -11.082031 14.472656 -12.253906 13.703125 -13.078125 C 12.941406 -13.898438 12.003906 -14.3125 10.890625 -14.3125 C 9.742188 -14.3125 8.796875 -13.90625 8.046875 -13.09375 C 7.296875 -12.289062 6.921875 -11.113281 6.921875 -9.5625 C 6.921875 -8.03125 7.289062 -6.851562 8.03125 -6.03125 C 8.769531 -5.207031 9.703125 -4.796875 10.828125 -4.796875 Z M 10.828125 -4.796875 "/></g></g></g><g fill="#000000" fill-opacity="1"><g transform="translate(260.98811, 180.438661)"><g/></g></g><g fill="#901dff" fill-opacity="1"><g transform="translate(169.8458, 218.376203)"><g><path d="M 7.984375 -19.34375 L 7.984375 -14.484375 L 15.828125 -14.484375 L 15.828125 -9.96875 L 7.984375 -9.96875 L 7.984375 -4.6875 L 16.84375 -4.6875 L 16.84375 0 L 2.125 0 L 2.125 -24.046875 L 16.84375 -24.046875 L 16.84375 -19.34375 Z M 7.984375 -19.34375 "/></g></g></g><g fill="#901dff" fill-opacity="1"><g transform="translate(188.367469, 218.376203)"><g><path d="M 10.71875 -5.484375 L 14.859375 -19.109375 L 21.09375 -19.109375 L 14.3125 0 L 7.09375 0 L 0.3125 -19.109375 L 6.578125 -19.109375 Z M 10.71875 -5.484375 "/></g></g></g><g fill="#901dff" fill-opacity="1"><g transform="translate(209.799199, 218.376203)"><g><path d="M 20.140625 -9.859375 C 20.140625 -9.316406 20.101562 -8.75 20.03125 -8.15625 L 6.78125 -8.15625 C 6.875 -6.96875 7.253906 -6.054688 7.921875 -5.421875 C 8.597656 -4.796875 9.425781 -4.484375 10.40625 -4.484375 C 11.875 -4.484375 12.890625 -5.101562 13.453125 -6.34375 L 19.6875 -6.34375 C 19.375 -5.082031 18.800781 -3.945312 17.96875 -2.9375 C 17.132812 -1.9375 16.085938 -1.148438 14.828125 -0.578125 C 13.578125 -0.00390625 12.175781 0.28125 10.625 0.28125 C 8.75 0.28125 7.078125 -0.117188 5.609375 -0.921875 C 4.148438 -1.722656 3.007812 -2.863281 2.1875 -4.34375 C 1.363281 -5.832031 0.953125 -7.570312 0.953125 -9.5625 C 0.953125 -11.539062 1.359375 -13.269531 2.171875 -14.75 C 2.984375 -16.238281 4.117188 -17.382812 5.578125 -18.1875 C 7.046875 -18.988281 8.726562 -19.390625 10.625 -19.390625 C 12.46875 -19.390625 14.109375 -19 15.546875 -18.21875 C 16.984375 -17.445312 18.109375 -16.335938 18.921875 -14.890625 C 19.734375 -13.453125 20.140625 -11.773438 20.140625 -9.859375 Z M 14.140625 -11.40625 C 14.140625 -12.40625 13.796875 -13.203125 13.109375 -13.796875 C 12.429688 -14.390625 11.578125 -14.6875 10.546875 -14.6875 C 9.566406 -14.6875 8.738281 -14.398438 8.0625 -13.828125 C 7.394531 -13.265625 6.976562 -12.457031 6.8125 -11.40625 Z M 14.140625 -11.40625 "/></g></g></g><g fill="#901dff" fill-opacity="1"><g transform="translate(230.888565, 218.376203)"><g><path d="M 13.765625 -19.3125 C 16.003906 -19.3125 17.789062 -18.585938 19.125 -17.140625 C 20.457031 -15.691406 21.125 -13.703125 21.125 -11.171875 L 21.125 0 L 15.3125 0 L 15.3125 -10.375 C 15.3125 -11.65625 14.976562 -12.648438 14.3125 -13.359375 C 13.65625 -14.066406 12.765625 -14.421875 11.640625 -14.421875 C 10.523438 -14.421875 9.632812 -14.066406 8.96875 -13.359375 C 8.3125 -12.648438 7.984375 -11.65625 7.984375 -10.375 L 7.984375 0 L 2.125 0 L 2.125 -19.109375 L 7.984375 -19.109375 L 7.984375 -16.578125 C 8.578125 -17.421875 9.375 -18.085938 10.375 -18.578125 C 11.382812 -19.066406 12.515625 -19.3125 13.765625 -19.3125 Z M 13.765625 -19.3125 "/></g></g></g><g fill="#901dff" fill-opacity="1"><g transform="translate(253.963622, 218.376203)"><g><path d="M 12.78125 -4.96875 L 12.78125 0 L 9.796875 0 C 7.671875 0 6.015625 -0.515625 4.828125 -1.546875 C 3.640625 -2.585938 3.046875 -4.285156 3.046875 -6.640625 L 3.046875 -14.25 L 0.71875 -14.25 L 0.71875 -19.109375 L 3.046875 -19.109375 L 3.046875 -23.765625 L 8.90625 -23.765625 L 8.90625 -19.109375 L 12.734375 -19.109375 L 12.734375 -14.25 L 8.90625 -14.25 L 8.90625 -6.578125 C 8.90625 -6.003906 9.039062 -5.59375 9.3125 -5.34375 C 9.59375 -5.09375 10.050781 -4.96875 10.6875 -4.96875 Z M 12.78125 -4.96875 "/></g></g></g><g fill="#901dff" fill-opacity="1"><g transform="translate(267.863428, 218.376203)"><g><path d="M 9.890625 0.28125 C 8.222656 0.28125 6.738281 -0.00390625 5.4375 -0.578125 C 4.144531 -1.148438 3.117188 -1.929688 2.359375 -2.921875 C 1.609375 -3.921875 1.1875 -5.035156 1.09375 -6.265625 L 6.890625 -6.265625 C 6.953125 -5.609375 7.253906 -5.070312 7.796875 -4.65625 C 8.347656 -4.25 9.023438 -4.046875 9.828125 -4.046875 C 10.554688 -4.046875 11.117188 -4.1875 11.515625 -4.46875 C 11.921875 -4.75 12.125 -5.117188 12.125 -5.578125 C 12.125 -6.128906 11.835938 -6.535156 11.265625 -6.796875 C 10.691406 -7.054688 9.769531 -7.347656 8.5 -7.671875 C 7.125 -7.992188 5.976562 -8.332031 5.0625 -8.6875 C 4.15625 -9.039062 3.367188 -9.597656 2.703125 -10.359375 C 2.046875 -11.128906 1.71875 -12.160156 1.71875 -13.453125 C 1.71875 -14.554688 2.019531 -15.554688 2.625 -16.453125 C 3.226562 -17.359375 4.117188 -18.070312 5.296875 -18.59375 C 6.472656 -19.125 7.867188 -19.390625 9.484375 -19.390625 C 11.878906 -19.390625 13.769531 -18.796875 15.15625 -17.609375 C 16.539062 -16.421875 17.332031 -14.84375 17.53125 -12.875 L 12.125 -12.875 C 12.03125 -13.539062 11.738281 -14.066406 11.25 -14.453125 C 10.757812 -14.835938 10.113281 -15.03125 9.3125 -15.03125 C 8.625 -15.03125 8.097656 -14.898438 7.734375 -14.640625 C 7.367188 -14.378906 7.1875 -14.019531 7.1875 -13.5625 C 7.1875 -13.007812 7.476562 -12.597656 8.0625 -12.328125 C 8.644531 -12.054688 9.550781 -11.785156 10.78125 -11.515625 C 12.195312 -11.140625 13.347656 -10.773438 14.234375 -10.421875 C 15.128906 -10.066406 15.914062 -9.492188 16.59375 -8.703125 C 17.269531 -7.921875 17.617188 -6.867188 17.640625 -5.546875 C 17.640625 -4.429688 17.320312 -3.429688 16.6875 -2.546875 C 16.0625 -1.671875 15.160156 -0.976562 13.984375 -0.46875 C 12.816406 0.03125 11.453125 0.28125 9.890625 0.28125 Z M 9.890625 0.28125 "/></g></g></g></svg>